<svg version="1.1" class="dotfiles-logo" xmlns="http://www.w3.org/2000/svg" xmlns:xlink="http://www.w3.org/1999/xlink" x="0px" y="0px"
viewBox="0 0 345.028 85.927" enable-background="new 0 0 345.028 85.927" xml:space="preserve">
<g>
<g>
<path fill="#333333" d="M49.293,0h-0.385H6.138C2.748,0,0,2.748,0,6.138v73.651c0,3.389,2.748,6.138,6.138,6.138h55.047
c3.39,0,6.138-2.748,6.138-6.138V18.413v-0.384L49.293,0z"/>
<circle fill="#3FA9F5" cx="33.661" cy="42.963" r="9.206"/>
<line fill="#1A1A1A" x1="67.322" y1="18.413" x2="48.909" y2="0"/>
<path fill="#3FA9F5" d="M49.293,11.892c0,3.39,2.748,6.138,6.138,6.138h11.892L49.293,0V11.892z"/>
</g>
<g>
<path fill="#3FA9F5" d="M119.011,68.698c0,1.729-1.336,3.064-2.986,3.064c-1.728,0-3.065-1.336-3.065-3.064v-5.5
c-3.3,4.872-8.093,9.037-15.558,9.037c-9.744,0-19.409-7.701-19.409-21.059v-0.157c0-13.28,9.665-21.137,19.409-21.137
c7.543,0,12.415,4.086,15.558,8.644V16.679c0-1.729,1.257-3.065,2.986-3.065c1.728,0,3.064,1.336,3.064,3.065V68.698z
M84.202,50.939v0.157c0,9.586,6.679,15.716,14.301,15.716c7.543,0,14.694-6.365,14.694-15.716v-0.157
c0-9.351-7.151-15.637-14.694-15.637C90.645,35.302,84.202,41.117,84.202,50.939z"/>
<path fill="#3FA9F5" d="M127.087,51.253v-0.157c0-11.472,8.958-21.216,21.216-21.216c12.18,0,21.137,9.586,21.137,21.059v0.157
c0,11.472-9.037,21.216-21.294,21.216C135.966,72.312,127.087,62.726,127.087,51.253z M163.233,51.253v-0.157
c0-8.722-6.522-15.873-15.087-15.873c-8.801,0-14.852,7.151-14.852,15.716v0.157c0,8.722,6.444,15.794,15.008,15.794
C157.104,66.89,163.233,59.818,163.233,51.253z"/>
<path fill="#3FA9F5" d="M178.597,60.604V36.088h-3.3c-1.415,0-2.672-1.257-2.672-2.672c0-1.493,1.257-2.671,2.672-2.671h3.3
v-9.587c0-1.65,1.257-3.064,2.986-3.064c1.65,0,3.064,1.414,3.064,3.064v9.587h10.53c1.493,0,2.75,1.257,2.75,2.671
c0,1.493-1.257,2.672-2.75,2.672h-10.53v23.73c0,4.951,2.75,6.758,6.836,6.758c2.122,0,3.222-0.55,3.693-0.55
c1.414,0,2.593,1.179,2.593,2.593c0,1.1-0.707,1.965-1.728,2.358c-1.729,0.707-3.615,1.1-5.972,1.1
C183.548,72.076,178.597,68.855,178.597,60.604z"/>
<path fill="#3FA9F5" d="M208.536,36.088h-3.3c-1.493,0-2.593-1.179-2.593-2.672c0-1.414,1.179-2.593,2.593-2.593h3.3v-3.536
c0-4.636,1.257-8.172,3.536-10.451c2.043-2.043,5.029-3.143,8.722-3.143c1.964,0,3.457,0.157,4.793,0.471
c1.179,0.236,2.2,1.257,2.2,2.593c0,1.572-1.336,2.75-2.907,2.593c-1.021-0.157-2.122-0.393-3.3-0.393
c-4.715,0-7.072,2.829-7.072,8.644v3.3h10.529c1.493,0,2.672,1.1,2.672,2.593c0,1.414-1.179,2.593-2.672,2.593h-10.451v32.61
c0,1.65-1.257,3.064-2.986,3.064c-1.728,0-3.064-1.414-3.064-3.064V36.088z M236.057,18.015c0-1.964,1.572-3.222,3.536-3.222
c2.043,0,3.615,1.257,3.615,3.222v1.022c0,1.886-1.572,3.222-3.615,3.222c-1.964,0-3.536-1.336-3.536-3.222V18.015z
M236.607,33.416c0-1.65,1.336-3.064,2.986-3.064c1.729,0,3.065,1.336,3.065,3.064v35.282c0,1.729-1.257,3.064-2.986,3.064
c-1.729,0-3.065-1.336-3.065-3.064V33.416z"/>
<path fill="#3FA9F5" d="M254.427,16.679c0-1.65,1.336-3.065,2.986-3.065c1.728,0,3.064,1.415,3.064,3.065v52.018
c0,1.729-1.257,3.064-2.986,3.064c-1.728,0-3.065-1.336-3.065-3.064V16.679z"/>
<path fill="#3FA9F5" d="M290.337,72.312c-11.158,0-20.273-8.565-20.273-21.137v-0.157c0-11.708,8.251-21.137,19.487-21.137
c12.022,0,18.859,9.822,18.859,20.587c0,1.65-1.336,2.829-2.829,2.829h-29.388c0.864,8.801,7.072,13.751,14.301,13.751
c5.029,0,8.722-1.964,11.708-4.715c0.471-0.393,1.021-0.707,1.728-0.707c1.493,0,2.672,1.179,2.672,2.593
c0,0.707-0.314,1.415-0.943,1.965C301.809,69.876,297.251,72.312,290.337,72.312z M302.359,48.817
c-0.629-7.386-4.872-13.83-12.965-13.83c-7.072,0-12.415,5.893-13.201,13.83H302.359z"/>
<path fill="#3FA9F5" d="M314.933,67.047c-0.55-0.393-1.1-1.179-1.1-2.2c0-1.414,1.179-2.593,2.672-2.593
c0.55,0,1.1,0.157,1.493,0.471c4.165,2.829,8.486,4.322,12.887,4.322c4.872,0,8.408-2.514,8.408-6.443v-0.157
c0-4.086-4.793-5.658-10.136-7.15c-6.365-1.807-13.437-4.007-13.437-11.472v-0.157c0-6.994,5.815-11.629,13.83-11.629
c4.322,0,9.037,1.336,12.965,3.457c0.786,0.471,1.493,1.336,1.493,2.514c0,1.414-1.179,2.593-2.672,2.593
c-0.55,0-1.021-0.157-1.336-0.314c-3.457-1.965-7.15-3.143-10.608-3.143c-4.793,0-7.857,2.514-7.857,5.893v0.157
c0,3.85,5.029,5.343,10.451,6.993c6.286,1.886,13.044,4.322,13.044,11.63v0.157c0,7.7-6.365,12.179-14.458,12.179
C325.227,72.155,319.333,70.19,314.933,67.047z"/>
</g>
</g>
</svg>
